<svg width="316" height="155" viewBox="0 0 316 155" fill="none" xmlns="http://www.w3.org/2000/svg">
<g filter="url(#filter0_d_10_4697)">
<path d="M15 13C15 11.3431 16.3431 10 18 10H298C299.657 10 301 11.3431 301 13V123C301 124.657 299.657 126 298 126H176.226C175.749 126 175.279 126.114 174.854 126.332L159.459 134.249C158.55 134.717 157.465 134.689 156.581 134.176L143.199 126.406C142.741 126.14 142.221 126 141.692 126H18C16.3431 126 15 124.657 15 123V13Z" fill="white"/>
</g>
<path d="M45.06 94.16H42.828V96.344H42.072V94.16H39.84V93.452H42.072V91.256H42.828V93.452H45.06V94.16ZM58.175 97.232V99.884H57.347V98H50.015L50.003 99.884H49.175L49.187 97.232H49.607C50.159 97.2 50.543 96.764 50.759 95.924C50.975 95.076 51.107 93.876 51.155 92.324L51.251 89.6H56.915V97.232H58.175ZM51.947 92.408C51.907 93.688 51.807 94.744 51.647 95.576C51.495 96.4 51.235 96.952 50.867 97.232H56.039V90.368H52.019L51.947 92.408ZM62.2105 98.06C61.6025 98.06 61.0545 97.924 60.5665 97.652C60.0785 97.372 59.6945 96.988 59.4145 96.5C59.1345 96.012 58.9945 95.46 58.9945 94.844C58.9945 94.228 59.1345 93.676 59.4145 93.188C59.6945 92.7 60.0785 92.32 60.5665 92.048C61.0545 91.776 61.6025 91.64 62.2105 91.64C62.8185 91.64 63.3665 91.776 63.8545 92.048C64.3425 92.32 64.7225 92.7 64.9945 93.188C65.2745 93.676 65.4145 94.228 65.4145 94.844C65.4145 95.46 65.2745 96.012 64.9945 96.5C64.7225 96.988 64.3425 97.372 63.8545 97.652C63.3665 97.924 62.8185 98.06 62.2105 98.06ZM62.2105 97.304C62.6585 97.304 63.0585 97.204 63.4105 97.004C63.7705 96.796 64.0505 96.504 64.2505 96.128C64.4505 95.752 64.5505 95.324 64.5505 94.844C64.5505 94.364 64.4505 93.936 64.2505 93.56C64.0505 93.184 63.7705 92.896 63.4105 92.696C63.0585 92.488 62.6585 92.384 62.2105 92.384C61.7625 92.384 61.3585 92.488 60.9985 92.696C60.6465 92.896 60.3665 93.184 60.1585 93.56C59.9585 93.936 59.8585 94.364 59.8585 94.844C59.8585 95.324 59.9585 95.752 60.1585 96.128C60.3665 96.504 60.6465 96.796 60.9985 97.004C61.3585 97.204 61.7625 97.304 62.2105 97.304ZM70.2954 91.844C70.8794 91.844 71.3994 91.976 71.8554 92.24C72.3194 92.496 72.6794 92.86 72.9354 93.332C73.1914 93.796 73.3194 94.328 73.3194 94.928C73.3194 95.544 73.1834 96.092 72.9114 96.572C72.6474 97.044 72.2754 97.412 71.7954 97.676C71.3154 97.94 70.7634 98.072 70.1394 98.072C69.0914 98.072 68.2794 97.704 67.7034 96.968C67.1274 96.232 66.8394 95.216 66.8394 93.92C66.8394 92.568 67.0954 91.532 67.6074 90.812C68.1274 90.092 68.9354 89.604 70.0314 89.348L72.8634 88.7L73.0074 89.48L70.3434 90.092C69.4394 90.292 68.7754 90.648 68.3514 91.16C67.9274 91.664 67.6954 92.412 67.6554 93.404C67.9114 92.916 68.2674 92.536 68.7234 92.264C69.1794 91.984 69.7034 91.844 70.2954 91.844ZM70.1634 97.364C70.6034 97.364 70.9954 97.264 71.3394 97.064C71.6914 96.856 71.9634 96.568 72.1554 96.2C72.3554 95.832 72.4554 95.416 72.4554 94.952C72.4554 94.488 72.3594 94.08 72.1674 93.728C71.9754 93.376 71.7034 93.104 71.3514 92.912C71.0074 92.712 70.6114 92.612 70.1634 92.612C69.7154 92.612 69.3154 92.712 68.9634 92.912C68.6194 93.104 68.3474 93.376 68.1474 93.728C67.9554 94.08 67.8594 94.488 67.8594 94.952C67.8594 95.416 67.9554 95.832 68.1474 96.2C68.3474 96.568 68.6234 96.856 68.9754 97.064C69.3274 97.264 69.7234 97.364 70.1634 97.364ZM77.2824 91.64C78.1064 91.64 78.7384 91.848 79.1784 92.264C79.6184 92.672 79.8384 93.28 79.8384 94.088V98H79.0224V97.016C78.8304 97.344 78.5464 97.6 78.1704 97.784C77.8024 97.968 77.3624 98.06 76.8504 98.06C76.1464 98.06 75.5864 97.892 75.1704 97.556C74.7544 97.22 74.5464 96.776 74.5464 96.224C74.5464 95.688 74.7384 95.256 75.1224 94.928C75.5144 94.6 76.1344 94.436 76.9824 94.436H78.9864V94.052C78.9864 93.508 78.8344 93.096 78.5304 92.816C78.2264 92.528 77.7824 92.384 77.1984 92.384C76.7984 92.384 76.4144 92.452 76.0464 92.588C75.6784 92.716 75.3624 92.896 75.0984 93.128L74.7144 92.492C75.0344 92.22 75.4184 92.012 75.8664 91.868C76.3144 91.716 76.7864 91.64 77.2824 91.64ZM76.9824 97.388C77.4624 97.388 77.8744 97.28 78.2184 97.064C78.5624 96.84 78.8184 96.52 78.9864 96.104V95.072H77.0064C75.9264 95.072 75.3864 95.448 75.3864 96.2C75.3864 96.568 75.5264 96.86 75.8064 97.076C76.0864 97.284 76.4784 97.388 76.9824 97.388ZM86.1265 94.736C86.9825 94.936 87.4105 95.452 87.4105 96.284C87.4105 96.836 87.2065 97.26 86.7985 97.556C86.3905 97.852 85.7825 98 84.9745 98H82.1065V91.688H84.8905C85.6105 91.688 86.1745 91.828 86.5825 92.108C86.9905 92.388 87.1945 92.788 87.1945 93.308C87.1945 93.652 87.0985 93.948 86.9065 94.196C86.7225 94.436 86.4625 94.616 86.1265 94.736ZM82.9345 94.496H84.8305C85.3185 94.496 85.6905 94.404 85.9465 94.22C86.2105 94.036 86.3425 93.768 86.3425 93.416C86.3425 93.064 86.2105 92.8 85.9465 92.624C85.6905 92.448 85.3185 92.36 84.8305 92.36H82.9345V94.496ZM84.9385 97.328C85.4825 97.328 85.8905 97.24 86.1625 97.064C86.4345 96.888 86.5705 96.612 86.5705 96.236C86.5705 95.86 86.4465 95.584 86.1985 95.408C85.9505 95.224 85.5585 95.132 85.0225 95.132H82.9345V97.328H84.9385ZM89.4073 91.688H90.2593V96.704L94.4713 91.688H95.2273V98H94.3753V92.984L90.1753 98H89.4073V91.688ZM102.109 92.444H99.721V98H98.869V92.444H96.481V91.688H102.109V92.444ZM106.053 93.92C106.845 93.928 107.445 94.104 107.853 94.448C108.269 94.792 108.477 95.288 108.477 95.936C108.477 96.608 108.253 97.124 107.805 97.484C107.365 97.844 106.725 98.02 105.885 98.012L103.341 98V91.688H104.193V93.896L106.053 93.92ZM105.837 97.364C106.421 97.372 106.861 97.256 107.157 97.016C107.461 96.768 107.613 96.408 107.613 95.936C107.613 95.472 107.465 95.128 107.169 94.904C106.873 94.68 106.429 94.564 105.837 94.556L104.193 94.532V97.34L105.837 97.364Z" fill="#2D00FF"/>
<path d="M39 99.2H108.885V99.8H39V99.2Z" fill="#2D00FF"/>
<path d="M45.176 39.8C46.1467 39.8 46.9893 39.96 47.704 40.28C48.4293 40.6 48.984 41.0587 49.368 41.656C49.752 42.2533 49.944 42.9627 49.944 43.784C49.944 44.5947 49.752 45.304 49.368 45.912C48.984 46.5093 48.4293 46.968 47.704 47.288C46.9893 47.608 46.1467 47.768 45.176 47.768H42.648V51H40.568V39.8H45.176ZM45.08 46.008C45.9867 46.008 46.6747 45.816 47.144 45.432C47.6133 45.048 47.848 44.4987 47.848 43.784C47.848 43.0693 47.6133 42.52 47.144 42.136C46.6747 41.752 45.9867 41.56 45.08 41.56H42.648V46.008H45.08ZM55.4645 51.112C54.6005 51.112 53.8218 50.9253 53.1285 50.552C52.4352 50.1787 51.8912 49.6613 51.4965 49C51.1125 48.328 50.9205 47.5707 50.9205 46.728C50.9205 45.8853 51.1125 45.1333 51.4965 44.472C51.8912 43.8107 52.4352 43.2933 53.1285 42.92C53.8218 42.5467 54.6005 42.36 55.4645 42.36C56.3392 42.36 57.1232 42.5467 57.8165 42.92C58.5098 43.2933 59.0485 43.8107 59.4325 44.472C59.8272 45.1333 60.0245 45.8853 60.0245 46.728C60.0245 47.5707 59.8272 48.328 59.4325 49C59.0485 49.6613 58.5098 50.1787 57.8165 50.552C57.1232 50.9253 56.3392 51.112 55.4645 51.112ZM55.4645 49.4C56.2005 49.4 56.8085 49.1547 57.2885 48.664C57.7685 48.1733 58.0085 47.528 58.0085 46.728C58.0085 45.928 57.7685 45.2827 57.2885 44.792C56.8085 44.3013 56.2005 44.056 55.4645 44.056C54.7285 44.056 54.1205 44.3013 53.6405 44.792C53.1712 45.2827 52.9365 45.928 52.9365 46.728C52.9365 47.528 53.1712 48.1733 53.6405 48.664C54.1205 49.1547 54.7285 49.4 55.4645 49.4ZM65.8883 51.112C65.0029 51.112 64.2083 50.9253 63.5043 50.552C62.8003 50.1787 62.2509 49.6613 61.8563 49C61.4616 48.328 61.2643 47.5707 61.2643 46.728C61.2643 45.8853 61.4616 45.1333 61.8563 44.472C62.2509 43.8107 62.7949 43.2933 63.4883 42.92C64.1923 42.5467 64.9923 42.36 65.8883 42.36C66.7309 42.36 67.4669 42.5307 68.0963 42.872C68.7363 43.2133 69.2163 43.704 69.5363 44.344L68.0003 45.24C67.7549 44.8453 67.4456 44.552 67.0723 44.36C66.7096 44.1573 66.3096 44.056 65.8723 44.056C65.1256 44.056 64.5069 44.3013 64.0163 44.792C63.5256 45.272 63.2803 45.9173 63.2803 46.728C63.2803 47.5387 63.5203 48.1893 64.0003 48.68C64.4909 49.16 65.1149 49.4 65.8723 49.4C66.3096 49.4 66.7096 49.304 67.0723 49.112C67.4456 48.9093 67.7549 48.6107 68.0003 48.216L69.5363 49.112C69.2056 49.752 68.7203 50.248 68.0803 50.6C67.4509 50.9413 66.7203 51.112 65.8883 51.112ZM75.0601 51.112C74.1748 51.112 73.3801 50.9253 72.6761 50.552C71.9721 50.1787 71.4228 49.6613 71.0281 49C70.6335 48.328 70.4361 47.5707 70.4361 46.728C70.4361 45.8853 70.6335 45.1333 71.0281 44.472C71.4228 43.8107 71.9668 43.2933 72.6601 42.92C73.3641 42.5467 74.1641 42.36 75.0601 42.36C75.9028 42.36 76.6388 42.5307 77.2681 42.872C77.9081 43.2133 78.3881 43.704 78.7081 44.344L77.1721 45.24C76.9268 44.8453 76.6175 44.552 76.2441 44.36C75.8815 44.1573 75.4815 44.056 75.0441 44.056C74.2975 44.056 73.6788 44.3013 73.1881 44.792C72.6975 45.272 72.4521 45.9173 72.4521 46.728C72.4521 47.5387 72.6921 48.1893 73.1721 48.68C73.6628 49.16 74.2868 49.4 75.0441 49.4C75.4815 49.4 75.8815 49.304 76.2441 49.112C76.6175 48.9093 76.9268 48.6107 77.1721 48.216L78.7081 49.112C78.3775 49.752 77.8921 50.248 77.2521 50.6C76.6228 50.9413 75.8921 51.112 75.0601 51.112ZM80.469 42.456H82.469V48.088L87.189 42.456H89.013V51H87.013V45.368L82.309 51H80.469V42.456ZM98.9194 42.456V51H97.1274V48.424H94.8714L93.1274 51H90.9834L92.9994 48.152C92.3807 47.9387 91.906 47.6133 91.5754 47.176C91.2554 46.728 91.0954 46.1787 91.0954 45.528C91.0954 44.5467 91.442 43.7893 92.1354 43.256C92.8287 42.7227 93.7834 42.456 94.9994 42.456H98.9194ZM95.0634 44.136C93.7727 44.136 93.1274 44.6213 93.1274 45.592C93.1274 46.552 93.7514 47.032 94.9994 47.032H97.1274V44.136H95.0634ZM102.234 48.456C102.607 48.456 102.916 48.5787 103.162 48.824C103.407 49.0693 103.53 49.3893 103.53 49.784C103.53 49.9547 103.503 50.136 103.45 50.328C103.407 50.5093 103.311 50.7867 103.162 51.16L102.346 53.416H101.05L101.69 50.968C101.455 50.872 101.268 50.7227 101.13 50.52C101.002 50.3067 100.938 50.0613 100.938 49.784C100.938 49.3893 101.06 49.0693 101.306 48.824C101.551 48.5787 101.86 48.456 102.234 48.456ZM120.45 51L120.434 43.576L116.754 49.72H115.826L112.146 43.672V51H110.178V39.8H111.89L116.322 47.208L120.706 39.8H122.402L122.434 51H120.45ZM129.152 51.112C128.288 51.112 127.509 50.9253 126.816 50.552C126.123 50.1787 125.579 49.6613 125.184 49C124.8 48.328 124.608 47.5707 124.608 46.728C124.608 45.8853 124.8 45.1333 125.184 44.472C125.579 43.8107 126.123 43.2933 126.816 42.92C127.509 42.5467 128.288 42.36 129.152 42.36C130.027 42.36 130.811 42.5467 131.504 42.92C132.197 43.2933 132.736 43.8107 133.12 44.472C133.515 45.1333 133.712 45.8853 133.712 46.728C133.712 47.5707 133.515 48.328 133.12 49C132.736 49.6613 132.197 50.1787 131.504 50.552C130.811 50.9253 130.027 51.112 129.152 51.112ZM129.152 49.4C129.888 49.4 130.496 49.1547 130.976 48.664C131.456 48.1733 131.696 47.528 131.696 46.728C131.696 45.928 131.456 45.2827 130.976 44.792C130.496 44.3013 129.888 44.056 129.152 44.056C128.416 44.056 127.808 44.3013 127.328 44.792C126.859 45.2827 126.624 45.928 126.624 46.728C126.624 47.528 126.859 48.1733 127.328 48.664C127.808 49.1547 128.416 49.4 129.152 49.4ZM139.576 51.112C138.69 51.112 137.896 50.9253 137.192 50.552C136.488 50.1787 135.938 49.6613 135.544 49C135.149 48.328 134.952 47.5707 134.952 46.728C134.952 45.8853 135.149 45.1333 135.544 44.472C135.938 43.8107 136.482 43.2933 137.176 42.92C137.88 42.5467 138.68 42.36 139.576 42.36C140.418 42.36 141.154 42.5307 141.784 42.872C142.424 43.2133 142.904 43.704 143.224 44.344L141.688 45.24C141.442 44.8453 141.133 44.552 140.76 44.36C140.397 44.1573 139.997 44.056 139.56 44.056C138.813 44.056 138.194 44.3013 137.704 44.792C137.213 45.272 136.968 45.9173 136.968 46.728C136.968 47.5387 137.208 48.1893 137.688 48.68C138.178 49.16 138.802 49.4 139.56 49.4C139.997 49.4 140.397 49.304 140.76 49.112C141.133 48.9093 141.442 48.6107 141.688 48.216L143.224 49.112C142.893 49.752 142.408 50.248 141.768 50.6C141.138 50.9413 140.408 51.112 139.576 51.112ZM148.537 47.576H146.985V51H144.985V42.456H146.985V45.912H148.585L151.113 42.456H153.257L150.153 46.568L153.465 51H151.113L148.537 47.576ZM161.067 46.552C162.123 46.872 162.651 47.5547 162.651 48.6C162.651 49.368 162.363 49.96 161.787 50.376C161.211 50.792 160.358 51 159.227 51H154.875V42.456H159.051C160.097 42.456 160.913 42.648 161.499 43.032C162.086 43.416 162.379 43.96 162.379 44.664C162.379 45.1013 162.262 45.48 162.027 45.8C161.803 46.12 161.483 46.3707 161.067 46.552ZM156.779 46.024H158.875C159.91 46.024 160.427 45.6667 160.427 44.952C160.427 44.2587 159.91 43.912 158.875 43.912H156.779V46.024ZM159.067 49.544C160.166 49.544 160.715 49.1867 160.715 48.472C160.715 48.0987 160.587 47.8213 160.331 47.64C160.075 47.448 159.675 47.352 159.131 47.352H156.779V49.544H159.067ZM167.966 42.36C169.224 42.36 170.184 42.664 170.846 43.272C171.518 43.8693 171.854 44.776 171.854 45.992V51H169.966V49.96C169.72 50.3333 169.368 50.6213 168.91 50.824C168.462 51.016 167.918 51.112 167.278 51.112C166.638 51.112 166.078 51.0053 165.598 50.792C165.118 50.568 164.744 50.264 164.478 49.88C164.222 49.4853 164.094 49.0427 164.094 48.552C164.094 47.784 164.376 47.1707 164.942 46.712C165.518 46.2427 166.419 46.008 167.646 46.008H169.854V45.88C169.854 45.2827 169.672 44.824 169.31 44.504C168.958 44.184 168.43 44.024 167.726 44.024C167.246 44.024 166.771 44.0987 166.302 44.248C165.843 44.3973 165.454 44.6053 165.134 44.872L164.35 43.416C164.798 43.0747 165.336 42.8133 165.966 42.632C166.595 42.4507 167.262 42.36 167.966 42.36ZM167.694 49.656C168.195 49.656 168.638 49.544 169.022 49.32C169.416 49.0853 169.694 48.7547 169.854 48.328V47.336H167.79C166.638 47.336 166.062 47.7147 166.062 48.472C166.062 48.8347 166.206 49.1227 166.494 49.336C166.782 49.5493 167.182 49.656 167.694 49.656ZM48.408 64.456L44.408 73.688C44.0347 74.616 43.5813 75.2667 43.048 75.64C42.5147 76.024 41.8693 76.216 41.112 76.216C40.6853 76.216 40.264 76.1467 39.848 76.008C39.432 75.8693 39.0907 75.6773 38.824 75.432L39.624 73.96C39.816 74.1413 40.04 74.2853 40.296 74.392C40.5627 74.4987 40.8293 74.552 41.096 74.552C41.448 74.552 41.736 74.4613 41.96 74.28C42.1947 74.0987 42.408 73.7947 42.6 73.368L42.744 73.032L39.016 64.456H41.096L43.784 70.776L46.488 64.456H48.408ZM57.0099 64.456V73H55.0099V66.152H51.8099L51.7299 67.848C51.6765 68.9787 51.5699 69.928 51.4099 70.696C51.2605 71.4533 50.9992 72.056 50.6259 72.504C50.2632 72.9413 49.7619 73.16 49.1219 73.16C48.8232 73.16 48.4552 73.1013 48.0179 72.984L48.1139 71.304C48.2632 71.336 48.3912 71.352 48.4979 71.352C48.9032 71.352 49.2072 71.192 49.4099 70.872C49.6125 70.5413 49.7405 70.152 49.7939 69.704C49.8579 69.2453 49.9112 68.5947 49.9539 67.752L50.0979 64.456H57.0099ZM60.3114 73.112C59.9487 73.112 59.6394 72.9893 59.3834 72.744C59.1274 72.488 58.9994 72.168 58.9994 71.784C58.9994 71.3893 59.122 71.0693 59.3674 70.824C59.6234 70.5787 59.938 70.456 60.3114 70.456C60.6847 70.456 60.994 70.5787 61.2394 70.824C61.4954 71.0693 61.6234 71.3893 61.6234 71.784C61.6234 72.168 61.4954 72.488 61.2394 72.744C60.9834 72.9893 60.674 73.112 60.3114 73.112ZM72.3835 68.28H70.3035V73H68.2555V61.8H70.3035V66.488H72.4475L75.6635 61.8H77.8715L74.0475 67.224L78.0155 73H75.6635L72.3835 68.28ZM82.902 73.112C82.038 73.112 81.2593 72.9253 80.566 72.552C79.8727 72.1787 79.3287 71.6613 78.934 71C78.55 70.328 78.358 69.5707 78.358 68.728C78.358 67.8853 78.55 67.1333 78.934 66.472C79.3287 65.8107 79.8727 65.2933 80.566 64.92C81.2593 64.5467 82.038 64.36 82.902 64.36C83.7767 64.36 84.5607 64.5467 85.254 64.92C85.9473 65.2933 86.486 65.8107 86.87 66.472C87.2647 67.1333 87.462 67.8853 87.462 68.728C87.462 69.5707 87.2647 70.328 86.87 71C86.486 71.6613 85.9473 72.1787 85.254 72.552C84.5607 72.9253 83.7767 73.112 82.902 73.112ZM82.902 71.4C83.638 71.4 84.246 71.1547 84.726 70.664C85.206 70.1733 85.446 69.528 85.446 68.728C85.446 67.928 85.206 67.2827 84.726 66.792C84.246 66.3013 83.638 66.056 82.902 66.056C82.166 66.056 81.558 66.3013 81.078 66.792C80.6087 67.2827 80.374 67.928 80.374 68.728C80.374 69.528 80.6087 70.1733 81.078 70.664C81.558 71.1547 82.166 71.4 82.902 71.4ZM102.03 64.456V73H89.4378V64.456H91.4378V71.304H94.7498V64.456H96.7498V71.304H100.03V64.456H102.03ZM111.487 66.152H108.495V73H106.495V66.152H103.487V64.456H111.487V66.152ZM116.371 73.112C115.507 73.112 114.728 72.9253 114.035 72.552C113.341 72.1787 112.797 71.6613 112.403 71C112.019 70.328 111.827 69.5707 111.827 68.728C111.827 67.8853 112.019 67.1333 112.403 66.472C112.797 65.8107 113.341 65.2933 114.035 64.92C114.728 64.5467 115.507 64.36 116.371 64.36C117.245 64.36 118.029 64.5467 118.723 64.92C119.416 65.2933 119.955 65.8107 120.339 66.472C120.733 67.1333 120.931 67.8853 120.931 68.728C120.931 69.5707 120.733 70.328 120.339 71C119.955 71.6613 119.416 72.1787 118.723 72.552C118.029 72.9253 117.245 73.112 116.371 73.112ZM116.371 71.4C117.107 71.4 117.715 71.1547 118.195 70.664C118.675 70.1733 118.915 69.528 118.915 68.728C118.915 67.928 118.675 67.2827 118.195 66.792C117.715 66.3013 117.107 66.056 116.371 66.056C115.635 66.056 115.027 66.3013 114.547 66.792C114.077 67.2827 113.843 67.928 113.843 68.728C113.843 69.528 114.077 70.1733 114.547 70.664C115.027 71.1547 115.635 71.4 116.371 71.4ZM129.841 64.456V73H128.049V70.424H125.793L124.049 73H121.905L123.921 70.152C123.303 69.9387 122.828 69.6133 122.497 69.176C122.177 68.728 122.017 68.1787 122.017 67.528C122.017 66.5467 122.364 65.7893 123.057 65.256C123.751 64.7227 124.705 64.456 125.921 64.456H129.841ZM125.985 66.136C124.695 66.136 124.049 66.6213 124.049 67.592C124.049 68.552 124.673 69.032 125.921 69.032H128.049V66.136H125.985ZM132.532 64.456H134.532V67.928H138.836V64.456H140.836V73H138.836V69.624H134.532V73H132.532V64.456ZM152.892 71.304V74.968H151.02V73H143.516V64.456H145.516V71.304H149.596V64.456H151.596V71.304H152.892ZM157.856 64.36C159.115 64.36 160.075 64.664 160.736 65.272C161.408 65.8693 161.744 66.776 161.744 67.992V73H159.856V71.96C159.611 72.3333 159.259 72.6213 158.8 72.824C158.352 73.016 157.808 73.112 157.168 73.112C156.528 73.112 155.968 73.0053 155.488 72.792C155.008 72.568 154.635 72.264 154.368 71.88C154.112 71.4853 153.984 71.0427 153.984 70.552C153.984 69.784 154.267 69.1707 154.832 68.712C155.408 68.2427 156.309 68.008 157.536 68.008H159.744V67.88C159.744 67.2827 159.563 66.824 159.2 66.504C158.848 66.184 158.32 66.024 157.616 66.024C157.136 66.024 156.661 66.0987 156.192 66.248C155.733 66.3973 155.344 66.6053 155.024 66.872L154.24 65.416C154.688 65.0747 155.227 64.8133 155.856 64.632C156.485 64.4507 157.152 64.36 157.856 64.36ZM157.584 71.656C158.085 71.656 158.528 71.544 158.912 71.32C159.307 71.0853 159.584 70.7547 159.744 70.328V69.336H157.68C156.528 69.336 155.952 69.7147 155.952 70.472C155.952 70.8347 156.096 71.1227 156.384 71.336C156.672 71.5493 157.072 71.656 157.584 71.656ZM164.843 70.456C165.216 70.456 165.526 70.5787 165.771 70.824C166.016 71.0693 166.139 71.3893 166.139 71.784C166.139 71.9547 166.112 72.136 166.059 72.328C166.016 72.5093 165.92 72.7867 165.771 73.16L164.955 75.416H163.659L164.299 72.968C164.064 72.872 163.878 72.7227 163.739 72.52C163.611 72.3067 163.547 72.0613 163.547 71.784C163.547 71.3893 163.67 71.0693 163.915 70.824C164.16 70.5787 164.47 70.456 164.843 70.456ZM176.675 66.424C177.71 66.552 178.499 66.904 179.043 67.48C179.587 68.056 179.859 68.776 179.859 69.64C179.859 70.2907 179.694 70.8827 179.363 71.416C179.032 71.9493 178.531 72.376 177.859 72.696C177.198 73.0053 176.387 73.16 175.427 73.16C174.627 73.16 173.854 73.048 173.107 72.824C172.371 72.5893 171.742 72.2693 171.219 71.864L172.115 70.248C172.52 70.5893 173.011 70.8613 173.587 71.064C174.174 71.256 174.776 71.352 175.395 71.352C176.131 71.352 176.707 71.2027 177.123 70.904C177.55 70.5947 177.763 70.1787 177.763 69.656C177.763 69.1333 177.56 68.728 177.155 68.44C176.76 68.1413 176.152 67.992 175.331 67.992H174.307V66.568L176.851 63.544H171.763V61.8H179.395V63.192L176.675 66.424ZM185.91 66.424C186.944 66.552 187.734 66.904 188.278 67.48C188.822 68.056 189.094 68.776 189.094 69.64C189.094 70.2907 188.928 70.8827 188.598 71.416C188.267 71.9493 187.766 72.376 187.094 72.696C186.432 73.0053 185.622 73.16 184.661 73.16C183.862 73.16 183.088 73.048 182.342 72.824C181.606 72.5893 180.976 72.2693 180.454 71.864L181.35 70.248C181.755 70.5893 182.246 70.8613 182.822 71.064C183.408 71.256 184.011 71.352 184.63 71.352C185.366 71.352 185.942 71.2027 186.358 70.904C186.784 70.5947 186.998 70.1787 186.998 69.656C186.998 69.1333 186.795 68.728 186.39 68.44C185.995 68.1413 185.387 67.992 184.566 67.992H183.542V66.568L186.086 63.544H180.998V61.8H188.63V63.192L185.91 66.424Z" fill="#040811"/>
<defs>
<filter id="filter0_d_10_4697" x="0" y="0" width="316" height="154.582" filterUnits="userSpaceOnUse" color-interpolation-filters="sRGB">
<feFlood flood-opacity="0" result="BackgroundImageFix"/>
<feColorMatrix in="SourceAlpha" type="matrix" values="0 0 0 0 0 0 0 0 0 0 0 0 0 0 0 0 0 0 127 0" result="hardAlpha"/>
<feOffset dy="5"/>
<feGaussianBlur stdDeviation="7.5"/>
<feComposite in2="hardAlpha" operator="out"/>
<feColorMatrix type="matrix" values="0 0 0 0 0.0156863 0 0 0 0 0.0313726 0 0 0 0 0.0666667 0 0 0 0.1 0"/>
<feBlend mode="normal" in2="BackgroundImageFix" result="effect1_dropShadow_10_4697"/>
<feBlend mode="normal" in="SourceGraphic" in2="effect1_dropShadow_10_4697" result="shape"/>
</filter>
</defs>
</svg>
